<mxfile host="Electron" agent="Mozilla/5.0 (Windows NT 10.0; Win64; x64) AppleWebKit/537.36 (KHTML, like Gecko) draw.io/24.7.17 Chrome/128.0.6613.36 Electron/32.0.1 Safari/537.36" version="24.7.17">
  <diagram name="第 1 页" id="BOlYEVQjK84j1QiDSbx_">
    <mxGraphModel dx="1221" dy="823" grid="1" gridSize="10" guides="1" tooltips="1" connect="1" arrows="1" fold="1" page="1" pageScale="1" pageWidth="827" pageHeight="1169" math="0" shadow="0">
      <root>
        <mxCell id="0" />
        <mxCell id="1" parent="0" />
        <mxCell id="wpgMK475ok1IuK-AOWYc-1" value="" style="edgeStyle=orthogonalEdgeStyle;rounded=0;orthogonalLoop=1;jettySize=auto;html=1;" edge="1" parent="1" source="wpgMK475ok1IuK-AOWYc-2" target="wpgMK475ok1IuK-AOWYc-4">
          <mxGeometry relative="1" as="geometry" />
        </mxCell>
        <mxCell id="wpgMK475ok1IuK-AOWYc-2" value="&lt;font style=&quot;font-size: 14px;&quot;&gt;程序开始&lt;/font&gt;" style="ellipse;whiteSpace=wrap;html=1;" vertex="1" parent="1">
          <mxGeometry x="245" y="170" width="120" height="40" as="geometry" />
        </mxCell>
        <mxCell id="wpgMK475ok1IuK-AOWYc-11" value="" style="edgeStyle=orthogonalEdgeStyle;rounded=0;orthogonalLoop=1;jettySize=auto;html=1;" edge="1" parent="1" source="wpgMK475ok1IuK-AOWYc-4" target="wpgMK475ok1IuK-AOWYc-10">
          <mxGeometry relative="1" as="geometry" />
        </mxCell>
        <mxCell id="wpgMK475ok1IuK-AOWYc-4" value="&lt;font style=&quot;font-size: 14px;&quot;&gt;输入字符&lt;/font&gt;" style="shape=parallelogram;perimeter=parallelogramPerimeter;whiteSpace=wrap;html=1;fixedSize=1;" vertex="1" parent="1">
          <mxGeometry x="245" y="250" width="120" height="40" as="geometry" />
        </mxCell>
        <mxCell id="wpgMK475ok1IuK-AOWYc-20" style="edgeStyle=orthogonalEdgeStyle;rounded=0;orthogonalLoop=1;jettySize=auto;html=1;exitX=0.5;exitY=1;exitDx=0;exitDy=0;" edge="1" parent="1" source="wpgMK475ok1IuK-AOWYc-6">
          <mxGeometry relative="1" as="geometry">
            <mxPoint x="305" y="230" as="targetPoint" />
            <Array as="points">
              <mxPoint x="305" y="470" />
              <mxPoint x="190" y="470" />
              <mxPoint x="190" y="230" />
            </Array>
          </mxGeometry>
        </mxCell>
        <mxCell id="wpgMK475ok1IuK-AOWYc-6" value="&lt;font style=&quot;font-size: 14px;&quot;&gt;将大小写互转&lt;br&gt;并存入数组&lt;/font&gt;" style="rounded=0;whiteSpace=wrap;html=1;" vertex="1" parent="1">
          <mxGeometry x="245" y="410" width="120" height="40" as="geometry" />
        </mxCell>
        <mxCell id="wpgMK475ok1IuK-AOWYc-9" value="&lt;font style=&quot;font-size: 14px;&quot;&gt;程序结束&lt;/font&gt;" style="ellipse;whiteSpace=wrap;html=1;" vertex="1" parent="1">
          <mxGeometry x="430" y="410" width="120" height="40" as="geometry" />
        </mxCell>
        <mxCell id="wpgMK475ok1IuK-AOWYc-13" value="" style="edgeStyle=orthogonalEdgeStyle;rounded=0;orthogonalLoop=1;jettySize=auto;html=1;" edge="1" parent="1" source="wpgMK475ok1IuK-AOWYc-10" target="wpgMK475ok1IuK-AOWYc-12">
          <mxGeometry relative="1" as="geometry" />
        </mxCell>
        <mxCell id="wpgMK475ok1IuK-AOWYc-16" value="&lt;font style=&quot;font-size: 14px;&quot;&gt;是&lt;/font&gt;" style="edgeLabel;html=1;align=center;verticalAlign=middle;resizable=0;points=[];" vertex="1" connectable="0" parent="wpgMK475ok1IuK-AOWYc-13">
          <mxGeometry x="-0.4381" y="4" relative="1" as="geometry">
            <mxPoint x="10" y="-6" as="offset" />
          </mxGeometry>
        </mxCell>
        <mxCell id="wpgMK475ok1IuK-AOWYc-19" value="" style="edgeStyle=orthogonalEdgeStyle;rounded=0;orthogonalLoop=1;jettySize=auto;html=1;" edge="1" parent="1" source="wpgMK475ok1IuK-AOWYc-10" target="wpgMK475ok1IuK-AOWYc-6">
          <mxGeometry relative="1" as="geometry" />
        </mxCell>
        <mxCell id="wpgMK475ok1IuK-AOWYc-10" value="&lt;font style=&quot;font-size: 14px;&quot;&gt;判断是否为\n&lt;/font&gt;" style="rhombus;whiteSpace=wrap;html=1;" vertex="1" parent="1">
          <mxGeometry x="240" y="330" width="130" height="40" as="geometry" />
        </mxCell>
        <mxCell id="wpgMK475ok1IuK-AOWYc-14" value="" style="edgeStyle=orthogonalEdgeStyle;rounded=0;orthogonalLoop=1;jettySize=auto;html=1;" edge="1" parent="1" source="wpgMK475ok1IuK-AOWYc-12" target="wpgMK475ok1IuK-AOWYc-9">
          <mxGeometry relative="1" as="geometry" />
        </mxCell>
        <mxCell id="wpgMK475ok1IuK-AOWYc-12" value="&lt;font style=&quot;font-size: 14px;&quot;&gt;输出结果&lt;/font&gt;" style="shape=parallelogram;perimeter=parallelogramPerimeter;whiteSpace=wrap;html=1;fixedSize=1;" vertex="1" parent="1">
          <mxGeometry x="430" y="330" width="120" height="40" as="geometry" />
        </mxCell>
      </root>
    </mxGraphModel>
  </diagram>
</mxfile>
